<svg xmlns="http://www.w3.org/2000/svg" viewBox="0 0 862 939.84"><defs><style>.cls-1,.cls-10,.cls-3,.cls-7,.cls-8,.cls-9{fill:none;}.cls-1,.cls-2{stroke:#283246;stroke-width:20px;}.cls-1,.cls-10,.cls-2,.cls-3,.cls-7,.cls-8,.cls-9{stroke-miterlimit:10;}.cls-2{fill:#122;}.cls-10,.cls-3{stroke:#fff;}.cls-3,.cls-7,.cls-8,.cls-9{stroke-width:8px;}.cls-4{fill:#5a00ff;}.cls-5{fill:#9b12fe;}.cls-6{fill:#f0f;}.cls-7{stroke:#5a00ff;}.cls-8{stroke:#f0f;}.cls-9{stroke:#9b12fe;}.cls-10{stroke-width:2px;}.cls-11{font-size:24px;fill:#fff;font-family:GTWalsheimRegular, GT Walsheim;}.cls-12{letter-spacing:-0.03em;}.cls-13{letter-spacing:0em;}.cls-14{letter-spacing:0em;}.cls-15{letter-spacing:-0.01em;}.cls-16{letter-spacing:0em;}.cls-17{letter-spacing:-0.02em;}.cls-18{letter-spacing:-0.02em;}.cls-19{letter-spacing:-0.08em;}</style></defs><title>socialization-masc_1</title><g id="Layer_2" data-name="Layer 2"><g id="Layer_2-2" data-name="Layer 2"><path class="cls-1" d="M113,824.21V559.05A109.84,109.84,0,0,1,222.84,449.21H742.16A109.84,109.84,0,0,0,852,339.37V246.05A109.84,109.84,0,0,0,742.16,136.21H292"/><circle class="cls-2" cx="113" cy="824.21" r="92"/><path class="cls-3" d="M266.34,60.57s-1.05-54.71,40-54.71S313.69,55.31,266.34,60.57Z"/><path class="cls-3" d="M267.14,62.43s-54.71,1.05-54.71-40S261.88,15.08,267.14,62.43Z"/><rect class="cls-4" x="171.64" y="94.24" width="189.39" height="96.27"/><rect class="cls-4" x="166.38" y="63.73" width="199.91" height="23.15"/><line class="cls-3" x1="267.14" y1="190.51" x2="267.14" y2="60.33"/><rect class="cls-5" x="522.23" y="528.75" width="142.49" height="42.47"/><path class="cls-4" d="M477.2,483.1v-4.66a2.61,2.61,0,0,0-2.61-2.61H457.18a2.61,2.61,0,0,0-2.61,2.61v4.66H441.72v-4.66a2.61,2.61,0,0,0-2.61-2.61H421.7a2.61,2.61,0,0,0-2.61,2.61v4.66h-6.71v42.47H554.87V483.1Z"/><path class="cls-6" d="M694.35,483.1v-4.66a2.61,2.61,0,0,0-2.61-2.61H674.33a2.61,2.61,0,0,0-2.61,2.61v4.66H658.87v-4.66a2.61,2.61,0,0,0-2.61-2.61H638.84a2.61,2.61,0,0,0-2.61,2.61v4.66H558.57v42.47H701.05V483.1Z"/><rect class="cls-5" x="485.48" y="437.44" width="142.49" height="42.47"/><path class="cls-6" d="M548.34,391.79v-4.66a2.61,2.61,0,0,0-2.61-2.61H528.32a2.61,2.61,0,0,0-2.61,2.61v4.66H512.86v-4.66a2.61,2.61,0,0,0-2.61-2.61H492.84a2.61,2.61,0,0,0-2.61,2.61v4.66H477.38v-4.66a2.61,2.61,0,0,0-2.61-2.61H457.35a2.61,2.61,0,0,0-2.61,2.61v4.66H441.9v-4.66a2.61,2.61,0,0,0-2.61-2.61H421.87a2.61,2.61,0,0,0-2.61,2.61v4.66h-6.71v42.47H555V391.79Z"/><path class="cls-4" d="M623.08,392v-4.66a2.61,2.61,0,0,0-2.61-2.61H603.06a2.61,2.61,0,0,0-2.61,2.61V392H587.6v-4.66a2.61,2.61,0,0,0-2.61-2.61H567.58a2.61,2.61,0,0,0-2.61,2.61V392h-6.71v42.47H700.75V392Z"/><path class="cls-5" d="M765.27,345.71v-4.66a2.61,2.61,0,0,0-2.61-2.61H745.25a2.61,2.61,0,0,0-2.61,2.61v4.66H729.79v-4.66a2.61,2.61,0,0,0-2.61-2.61H709.77a2.61,2.61,0,0,0-2.61,2.61v4.66H694.31v-4.66a2.61,2.61,0,0,0-2.61-2.61H674.29a2.61,2.61,0,0,0-2.61,2.61v4.66H658.83v-4.66a2.61,2.61,0,0,0-2.61-2.61H638.8a2.61,2.61,0,0,0-2.61,2.61v4.66h-6.71v42.47H772V345.71Z"/><line class="cls-7" x1="221.82" y1="695.42" x2="312.4" y2="695.42"/><line class="cls-8" x1="262.08" y1="713.92" x2="493.54" y2="713.92"/><line class="cls-7" x1="302.33" y1="732.41" x2="343.11" y2="732.41"/><line class="cls-8" x1="357.86" y1="732.41" x2="442.48" y2="732.41"/><line class="cls-9" x1="454.31" y1="732.41" x2="538.93" y2="732.41"/><line class="cls-9" x1="302.33" y1="750.91" x2="378.18" y2="750.91"/><line class="cls-7" x1="302.33" y1="769.4" x2="343.11" y2="769.4"/><line class="cls-8" x1="357.86" y1="769.4" x2="467.32" y2="769.4"/><line class="cls-8" x1="262.08" y1="787.89" x2="312.4" y2="787.89"/><line class="cls-7" x1="221.82" y1="806.39" x2="352.65" y2="806.39"/><line class="cls-8" x1="262.08" y1="824.88" x2="312.42" y2="824.88"/><line class="cls-7" x1="326.38" y1="824.88" x2="400.1" y2="824.88"/><line class="cls-9" x1="414.05" y1="824.88" x2="458.55" y2="824.88"/><line class="cls-8" x1="473.97" y1="824.88" x2="555" y2="824.88"/><line class="cls-7" x1="302.33" y1="843.37" x2="363.57" y2="843.37"/><line class="cls-9" x1="378.32" y1="843.37" x2="439.56" y2="843.37"/><line class="cls-7" x1="451.39" y1="843.37" x2="489.24" y2="843.37"/><line class="cls-7" x1="302.33" y1="861.87" x2="352.65" y2="861.87"/><line class="cls-8" x1="262.08" y1="880.36" x2="312.4" y2="880.36"/><line class="cls-7" x1="221.82" y1="898.86" x2="272.14" y2="898.86"/><line class="cls-9" x1="262.08" y1="917.35" x2="378.82" y2="917.35"/><line class="cls-7" x1="221.82" y1="935.84" x2="272.14" y2="935.84"/><line class="cls-7" x1="390.01" y1="750.91" x2="427.87" y2="750.91"/><line class="cls-10" x1="464.46" y1="815.13" x2="464.46" y2="833.23"/><line class="cls-3" x1="205.37" y1="695.42" x2="210.33" y2="695.42"/><line class="cls-3" x1="205.37" y1="713.92" x2="210.33" y2="713.92"/><line class="cls-3" x1="205.37" y1="732.41" x2="210.33" y2="732.41"/><line class="cls-3" x1="205.37" y1="750.91" x2="210.33" y2="750.91"/><line class="cls-3" x1="205.37" y1="769.4" x2="210.33" y2="769.4"/><line class="cls-3" x1="205.37" y1="787.89" x2="210.33" y2="787.89"/><line class="cls-3" x1="205.37" y1="806.39" x2="210.33" y2="806.39"/><line class="cls-3" x1="205.37" y1="824.88" x2="210.33" y2="824.88"/><line class="cls-3" x1="205.37" y1="843.37" x2="210.33" y2="843.37"/><line class="cls-3" x1="205.37" y1="861.87" x2="210.33" y2="861.87"/><line class="cls-3" x1="205.37" y1="880.36" x2="210.33" y2="880.36"/><line class="cls-3" x1="205.37" y1="898.86" x2="210.33" y2="898.86"/><line class="cls-3" x1="205.37" y1="917.35" x2="210.33" y2="917.35"/><line class="cls-3" x1="205.37" y1="935.84" x2="210.33" y2="935.84"/><path class="cls-6" d="M351.16,177.77c-14,2.26-43.85,17.86-57.86,20.12s-22.15-3.61-22.15-3.61l21-3.39c7-1.13,13.45-5.77,12.32-12.77s-8.7-9.38-15.71-8.25l-28,4.52c-7,1.13-19.21-7.68-40.23-4.29S23.44,263,2.42,266.41c-.82.13-1.63.31-2.42.52v71.76c56.1-9.32,155.5-104.17,197.47-110.95s36.73,4.85,61.25.9,61.36-20.69,78.88-23.52,19.89-10.4,19.89-10.4L368,193S365.17,175.51,351.16,177.77Z"/><text class="cls-11" transform="translate(449.31 86.83)">Social Con<tspan class="cls-12" x="117.5" y="0">v</tspan><tspan class="cls-13" x="128.47" y="0">ention</tspan></text><text class="cls-11" transform="translate(637.12 742.83)">Analytical +<tspan x="0" y="28.8">Engineering Skills</tspan><tspan x="0" y="86.4">Expec</tspan><tspan class="cls-14" x="63.29" y="86.4">t</tspan><tspan x="71.33" y="86.4">ation </tspan><tspan class="cls-15" x="132.72" y="86.4">o</tspan><tspan class="cls-16" x="145.92" y="86.4">f</tspan><tspan class="cls-17" x="0" y="115.2">L</tspan><tspan x="9.72" y="115.2">eade</tspan><tspan class="cls-15" x="63.57" y="115.2">r</tspan><tspan class="cls-13" x="72.09" y="115.2">ship</tspan></text><text class="cls-11" transform="translate(271.38 358.83)">Modular<tspan x="-104.02" y="28.8">Con</tspan><tspan class="cls-18" x="-58.42" y="28.8">s</tspan><tspan x="-48" y="28.8">truction </tspan><tspan class="cls-19" x="42.24" y="28.8">T</tspan><tspan x="51.69" y="28.8">oys</tspan></text></g></g></svg>