<svg xmlns="http://www.w3.org/2000/svg" viewBox="0 0 862 939.84"><defs><style>.cls-1,.cls-10,.cls-3,.cls-7,.cls-8,.cls-9{fill:none;}.cls-1,.cls-2{stroke:#283246;stroke-width:20px;}.cls-1,.cls-10,.cls-2,.cls-3,.cls-7,.cls-8,.cls-9{stroke-miterlimit:10;}.cls-2{fill:#122;}.cls-10,.cls-3{stroke:#fff;}.cls-3,.cls-7,.cls-8,.cls-9{stroke-width:8px;}.cls-4{fill:#5a00ff;}.cls-5{fill:#9b12fe;}.cls-6{fill:#f0f;}.cls-7{stroke:#5a00ff;}.cls-8{stroke:#f0f;}.cls-9{stroke:#9b12fe;}.cls-10{stroke-width:2px;}.cls-11{fill:#fff;}</style></defs><title>socialization-masc_2</title><g id="Layer_2" data-name="Layer 2"><g id="Layer_2-2" data-name="Layer 2"><path class="cls-1" d="M113,824.21V559.05A109.84,109.84,0,0,1,222.84,449.21H742.16A109.84,109.84,0,0,0,852,339.37V246.05A109.84,109.84,0,0,0,742.16,136.21H292"/><circle class="cls-2" cx="113" cy="824.21" r="92"/><path class="cls-3" d="M266.34,60.57s-1.05-54.71,40-54.71S313.69,55.31,266.34,60.57Z"/><path class="cls-3" d="M267.14,62.43s-54.71,1.05-54.71-40S261.88,15.08,267.14,62.43Z"/><rect class="cls-4" x="171.64" y="94.24" width="189.39" height="96.27"/><rect class="cls-4" x="166.38" y="63.73" width="199.91" height="23.15"/><line class="cls-3" x1="267.14" y1="190.51" x2="267.14" y2="60.33"/><rect class="cls-5" x="522.23" y="523.75" width="142.49" height="42.47"/><path class="cls-4" d="M477.2,478.1v-4.66a2.61,2.61,0,0,0-2.61-2.61H457.18a2.61,2.61,0,0,0-2.61,2.61v4.66H441.72v-4.66a2.61,2.61,0,0,0-2.61-2.61H421.7a2.61,2.61,0,0,0-2.61,2.61v4.66h-6.71v42.47H554.87V478.1Z"/><path class="cls-6" d="M694.35,478.1v-4.66a2.61,2.61,0,0,0-2.61-2.61H674.33a2.61,2.61,0,0,0-2.61,2.61v4.66H658.87v-4.66a2.61,2.61,0,0,0-2.61-2.61H638.84a2.61,2.61,0,0,0-2.61,2.61v4.66H558.57v42.47H701.05V478.1Z"/><rect class="cls-5" x="485.48" y="432.44" width="142.49" height="42.47"/><path class="cls-6" d="M548.34,386.79v-4.66a2.61,2.61,0,0,0-2.61-2.61H528.32a2.61,2.61,0,0,0-2.61,2.61v4.66H512.86v-4.66a2.61,2.61,0,0,0-2.61-2.61H492.84a2.61,2.61,0,0,0-2.61,2.61v4.66H477.38v-4.66a2.61,2.61,0,0,0-2.61-2.61H457.35a2.61,2.61,0,0,0-2.61,2.61v4.66H441.9v-4.66a2.61,2.61,0,0,0-2.61-2.61H421.87a2.61,2.61,0,0,0-2.61,2.61v4.66h-6.71v42.47H555V386.79Z"/><path class="cls-4" d="M623.08,387v-4.66a2.61,2.61,0,0,0-2.61-2.61H603.06a2.61,2.61,0,0,0-2.61,2.61V387H587.6v-4.66a2.61,2.61,0,0,0-2.61-2.61H567.58a2.61,2.61,0,0,0-2.61,2.61V387h-6.71v42.47H700.75V387Z"/><path class="cls-5" d="M765.27,340.71v-4.66a2.61,2.61,0,0,0-2.61-2.61H745.25a2.61,2.61,0,0,0-2.61,2.61v4.66H729.79v-4.66a2.61,2.61,0,0,0-2.61-2.61H709.77a2.61,2.61,0,0,0-2.61,2.61v4.66H694.31v-4.66a2.61,2.61,0,0,0-2.61-2.61H674.29a2.61,2.61,0,0,0-2.61,2.61v4.66H658.83v-4.66a2.61,2.61,0,0,0-2.61-2.61H638.8a2.61,2.61,0,0,0-2.61,2.61v4.66h-6.71v42.47H772V340.71Z"/><line class="cls-7" x1="221.82" y1="695.42" x2="312.4" y2="695.42"/><line class="cls-8" x1="262.08" y1="713.92" x2="493.54" y2="713.92"/><line class="cls-7" x1="302.33" y1="732.41" x2="343.11" y2="732.41"/><line class="cls-8" x1="357.86" y1="732.41" x2="442.48" y2="732.41"/><line class="cls-9" x1="454.31" y1="732.41" x2="538.93" y2="732.41"/><line class="cls-9" x1="302.33" y1="750.91" x2="378.18" y2="750.91"/><line class="cls-7" x1="302.33" y1="769.4" x2="343.11" y2="769.4"/><line class="cls-8" x1="357.86" y1="769.4" x2="467.32" y2="769.4"/><line class="cls-8" x1="262.08" y1="787.89" x2="312.4" y2="787.89"/><line class="cls-7" x1="221.82" y1="806.39" x2="352.65" y2="806.39"/><line class="cls-8" x1="262.08" y1="824.88" x2="312.42" y2="824.88"/><line class="cls-7" x1="326.38" y1="824.88" x2="400.1" y2="824.88"/><line class="cls-9" x1="414.05" y1="824.88" x2="458.55" y2="824.88"/><line class="cls-8" x1="473.97" y1="824.88" x2="555" y2="824.88"/><line class="cls-7" x1="302.33" y1="843.37" x2="363.57" y2="843.37"/><line class="cls-9" x1="378.32" y1="843.37" x2="439.56" y2="843.37"/><line class="cls-7" x1="451.39" y1="843.37" x2="489.24" y2="843.37"/><line class="cls-7" x1="302.33" y1="861.87" x2="352.65" y2="861.87"/><line class="cls-8" x1="262.08" y1="880.36" x2="312.4" y2="880.36"/><line class="cls-7" x1="221.82" y1="898.86" x2="272.14" y2="898.86"/><line class="cls-9" x1="262.08" y1="917.35" x2="378.82" y2="917.35"/><line class="cls-7" x1="221.82" y1="935.84" x2="272.14" y2="935.84"/><line class="cls-7" x1="390.01" y1="750.91" x2="427.87" y2="750.91"/><line class="cls-10" x1="464.46" y1="815.13" x2="464.46" y2="833.23"/><line class="cls-3" x1="205.37" y1="695.42" x2="210.33" y2="695.42"/><line class="cls-3" x1="205.37" y1="713.92" x2="210.33" y2="713.92"/><line class="cls-3" x1="205.37" y1="732.41" x2="210.33" y2="732.41"/><line class="cls-3" x1="205.37" y1="750.91" x2="210.33" y2="750.91"/><line class="cls-3" x1="205.37" y1="769.4" x2="210.33" y2="769.4"/><line class="cls-3" x1="205.37" y1="787.89" x2="210.33" y2="787.89"/><line class="cls-3" x1="205.37" y1="806.39" x2="210.33" y2="806.39"/><line class="cls-3" x1="205.37" y1="824.88" x2="210.33" y2="824.88"/><line class="cls-3" x1="205.37" y1="843.37" x2="210.33" y2="843.37"/><line class="cls-3" x1="205.37" y1="861.87" x2="210.33" y2="861.87"/><line class="cls-3" x1="205.37" y1="880.36" x2="210.33" y2="880.36"/><line class="cls-3" x1="205.37" y1="898.86" x2="210.33" y2="898.86"/><line class="cls-3" x1="205.37" y1="917.35" x2="210.33" y2="917.35"/><line class="cls-3" x1="205.37" y1="935.84" x2="210.33" y2="935.84"/><path class="cls-6" d="M351.16,177.77c-14,2.26-43.85,17.86-57.86,20.12s-22.15-3.61-22.15-3.61l21-3.39c7-1.13,13.45-5.77,12.32-12.77s-8.7-9.38-15.71-8.25l-28,4.52c-7,1.13-19.21-7.68-40.23-4.29S23.44,263,2.42,266.41c-.82.13-1.63.31-2.42.52v71.76c56.1-9.32,155.5-104.17,197.47-110.95s36.73,4.85,61.25.9,61.36-20.69,78.88-23.52,19.89-10.4,19.89-10.4L368,193S365.17,175.51,351.16,177.77Z"/><path class="cls-11" d="M452.57,81.47a3.55,3.55,0,0,0,3.79,3.77c1.94,0,3.34-1.1,3.34-2.86,0-2-1.73-2.62-3.19-3-3-1-5.52-1.8-5.52-5.21,0-2.66,2.21-4.49,5.23-4.49a5,5,0,0,1,5.28,5.14h-2.18a2.92,2.92,0,0,0-3-3.17c-1.85,0-3.1,1-3.1,2.52,0,1.82,1.51,2.42,3.12,2.9,2.59.84,5.59,1.85,5.59,5.11s-2.5,5.06-5.69,5.06a5.51,5.51,0,0,1-5.81-5.74Z"/><path class="cls-11" d="M464,81.38a5.74,5.74,0,1,1,5.71,5.71A5.58,5.58,0,0,1,464,81.38Zm9.41,0a3.68,3.68,0,1,0-3.7,3.84A3.68,3.68,0,0,0,473.4,81.38Z"/><path class="cls-11" d="M486,79.89c-.17-1.34-1-2.38-3-2.38-2.26,0-3.38,1.82-3.38,3.86s1.08,3.84,3.5,3.84A2.64,2.64,0,0,0,486,83.08h2.09c-.34,2.26-2,4-5.16,4-3.55,0-5.45-2.76-5.45-5.71s1.9-5.74,5.42-5.74,5,2.14,5.16,4.25Z"/><path class="cls-11" d="M492,70.1a1.71,1.71,0,0,1,1.7,1.7,1.69,1.69,0,0,1-1.7,1.66,1.66,1.66,0,0,1-1.66-1.66A1.69,1.69,0,0,1,492,70.1Zm-1,5.83h2.09v10.9H491Z"/><path class="cls-11" d="M507.43,75.93v10.9h-2.06v-1.9a4.34,4.34,0,0,1-3.82,2.16,5.73,5.73,0,0,1,0-11.45,4.34,4.34,0,0,1,3.82,2.16V75.93Zm-2.06,5.45a3.68,3.68,0,1,0-3.7,3.84A3.68,3.68,0,0,0,505.37,81.38Z"/><path class="cls-11" d="M511.18,70h2.09v16.8h-2.09Z"/><path class="cls-11" d="M538.87,81.64A7.85,7.85,0,0,1,531,87.21a8.52,8.52,0,0,1-8.81-8.81c0-4.56,3.24-8.76,8.5-8.76,4.87,0,7.56,2.76,8.18,6.26h-2.3a5.36,5.36,0,0,0-5.62-4.3c-4.13,0-6.53,3.26-6.53,6.79a6.55,6.55,0,0,0,6.84,6.84,5.57,5.57,0,0,0,5.21-3.6Z"/><path class="cls-11" d="M540.79,81.38a5.74,5.74,0,1,1,5.71,5.71A5.58,5.58,0,0,1,540.79,81.38Zm9.41,0a3.68,3.68,0,1,0-3.7,3.84A3.68,3.68,0,0,0,550.2,81.38Z"/><path class="cls-11" d="M555.12,75.93h2.09v1.92A4.07,4.07,0,0,1,561,75.64a3.78,3.78,0,0,1,3.26,1.44,5.2,5.2,0,0,1,.84,3.31v6.43h-2.09V81c0-2-.72-3.55-2.76-3.55s-3.1,1.78-3.1,3.72v5.62h-2.09Z"/><path class="cls-11" d="M569.16,75.93l3.41,7.92L576,75.93h2.26l-5,10.9h-1.44l-4.94-10.9Z"/><path class="cls-11" d="M580.87,81.93c.1,1.85,1,3.41,3.38,3.41A2.63,2.63,0,0,0,587,83.61h2.11c-.36,1.85-2.14,3.48-4.87,3.48-3.67,0-5.45-2.57-5.45-5.71s1.94-5.74,5.38-5.74a4.91,4.91,0,0,1,5,4.92,8.08,8.08,0,0,1-.1,1.37Zm0-1.58h6.31a2.94,2.94,0,0,0-3.07-3.1A3,3,0,0,0,580.9,80.35Z"/><path class="cls-11" d="M592.25,75.93h2.09v1.92a4.07,4.07,0,0,1,3.84-2.21,3.78,3.78,0,0,1,3.26,1.44,5.2,5.2,0,0,1,.84,3.31v6.43h-2.09V81c0-2-.72-3.55-2.76-3.55s-3.1,1.78-3.1,3.72v5.62h-2.09Z"/><path class="cls-11" d="M611.74,86.83a12.41,12.41,0,0,1-1.87.14c-1.34,0-3.43-.24-3.43-3.82V77.68h-2V75.93h2V72.26h2.09v3.67h2.83v1.75h-2.83v5c0,2.11.74,2.38,1.8,2.38a12,12,0,0,0,1.42-.1Z"/><path class="cls-11" d="M615,70.1a1.71,1.71,0,0,1,1.7,1.7,1.69,1.69,0,0,1-1.7,1.66,1.66,1.66,0,0,1-1.66-1.66A1.69,1.69,0,0,1,615,70.1Zm-1,5.83h2.09v10.9H614Z"/><path class="cls-11" d="M618.91,81.38a5.74,5.74,0,1,1,5.71,5.71A5.58,5.58,0,0,1,618.91,81.38Zm9.41,0a3.68,3.68,0,1,0-3.7,3.84A3.68,3.68,0,0,0,628.32,81.38Z"/><path class="cls-11" d="M633.24,75.93h2.09v1.92a4.07,4.07,0,0,1,3.84-2.21,3.78,3.78,0,0,1,3.26,1.44,5.2,5.2,0,0,1,.84,3.31v6.43h-2.09V81c0-2-.72-3.55-2.76-3.55s-3.1,1.78-3.1,3.72v5.62h-2.09Z"/><path class="cls-11" d="M648.11,742.83l-.89-2.57H640.4l-.86,2.57h-2.3L643,726h1.58l5.81,16.8Zm-4.27-13.22-2.76,8.66h5.47Z"/><path class="cls-11" d="M652.4,731.93h2.09v1.92a4.07,4.07,0,0,1,3.84-2.21,3.78,3.78,0,0,1,3.26,1.44,5.2,5.2,0,0,1,.84,3.31v6.43h-2.09V737c0-2-.72-3.55-2.76-3.55s-3.1,1.78-3.1,3.72v5.62H652.4Z"/><path class="cls-11" d="M676.55,731.93v10.9h-2.06v-1.9a4.34,4.34,0,0,1-3.82,2.16,5.73,5.73,0,0,1,0-11.45,4.34,4.34,0,0,1,3.82,2.16v-1.87Zm-2.06,5.45a3.68,3.68,0,1,0-3.7,3.84A3.68,3.68,0,0,0,674.48,737.38Z"/><path class="cls-11" d="M680.29,726h2.09v16.8h-2.09Z"/><path class="cls-11" d="M685.93,744.24H688a2.79,2.79,0,0,0,3,3c1.87,0,3-.74,3-3.24v-3.07a4,4,0,0,1-3.82,2.21A3.86,3.86,0,0,1,687,741.7a5.39,5.39,0,0,1-.82-3.41v-6.36h2.09v5.71c0,2.11.62,3.6,2.78,3.6s3.07-1.75,3.07-3.72v-5.59h2.09v12c0,3.48-1.82,5-5.18,5C687.92,749,686,747.39,685.93,744.24Z"/><path class="cls-11" d="M705.8,742.83a12.34,12.34,0,0,1-1.87.14c-1.34,0-3.43-.24-3.43-3.82v-5.47h-2v-1.75h2v-3.67h2.09v3.67h2.83v1.75h-2.83v5c0,2.11.74,2.38,1.8,2.38a12,12,0,0,0,1.42-.1Z"/><path class="cls-11" d="M709.07,726.1a1.71,1.71,0,0,1,1.7,1.7,1.69,1.69,0,0,1-1.7,1.66,1.66,1.66,0,0,1-1.66-1.66A1.69,1.69,0,0,1,709.07,726.1Zm-1,5.83h2.09v10.9H708Z"/><path class="cls-11" d="M721.52,735.89c-.17-1.34-1-2.38-3-2.38-2.26,0-3.38,1.82-3.38,3.87s1.08,3.84,3.5,3.84a2.64,2.64,0,0,0,2.93-2.14h2.09c-.34,2.26-2,4-5.16,4-3.55,0-5.45-2.76-5.45-5.71s1.9-5.74,5.42-5.74,5,2.14,5.16,4.25Z"/><path class="cls-11" d="M737.15,731.93v10.9h-2.06v-1.9a4.34,4.34,0,0,1-3.82,2.16,5.73,5.73,0,0,1,0-11.45,4.34,4.34,0,0,1,3.82,2.16v-1.87Zm-2.06,5.45a3.68,3.68,0,1,0-3.7,3.84A3.68,3.68,0,0,0,735.08,737.38Z"/><path class="cls-11" d="M740.89,726H743v16.8h-2.09Z"/><path class="cls-11" d="M756.78,740.76v-3.84H753v-1.85h3.74v-3.89h2.09v3.89h3.74v1.85h-3.74v3.84Z"/><path class="cls-11" d="M641.17,756.79v5.5h7.25v2h-7.25v5.4h7.25v2H639v-16.8h9.43v2Z"/><path class="cls-11" d="M652,760.73h2.09v1.92a4.07,4.07,0,0,1,3.84-2.21,3.78,3.78,0,0,1,3.26,1.44,5.2,5.2,0,0,1,.84,3.31v6.43H660v-5.79c0-2-.72-3.55-2.76-3.55s-3.1,1.78-3.1,3.72v5.62H652Z"/><path class="cls-11" d="M676.19,772.32c0,3.89-2.18,5.45-5.81,5.45s-5.38-2.3-5.52-4.75H667a3.06,3.06,0,0,0,3.41,2.9c2.33,0,3.74-1,3.74-3.6v-2.59a4.34,4.34,0,0,1-3.82,2.16,5.73,5.73,0,0,1,0-11.45,4.34,4.34,0,0,1,3.82,2.16v-1.87h2.06Zm-9.41-6.14a3.68,3.68,0,1,0,3.65-3.86A3.65,3.65,0,0,0,666.78,766.18Z"/><path class="cls-11" d="M680.92,754.9a1.71,1.71,0,0,1,1.7,1.71,1.69,1.69,0,0,1-1.7,1.66,1.66,1.66,0,0,1-1.66-1.66A1.69,1.69,0,0,1,680.92,754.9Zm-1,5.83H682v10.9h-2.09Z"/><path class="cls-11" d="M685.71,760.73h2.09v1.92a4.07,4.07,0,0,1,3.84-2.21,3.78,3.78,0,0,1,3.26,1.44,5.2,5.2,0,0,1,.84,3.31v6.43h-2.09v-5.79c0-2-.72-3.55-2.76-3.55s-3.1,1.78-3.1,3.72v5.62h-2.09Z"/><path class="cls-11" d="M700.5,766.73c.1,1.85,1,3.41,3.38,3.41a2.63,2.63,0,0,0,2.76-1.73h2.11c-.36,1.85-2.14,3.48-4.87,3.48-3.67,0-5.45-2.57-5.45-5.71s1.94-5.74,5.38-5.74a4.91,4.91,0,0,1,5,4.92,8.09,8.09,0,0,1-.1,1.37Zm0-1.58h6.31a2.94,2.94,0,0,0-3.07-3.1A3,3,0,0,0,700.52,765.15Z"/><path class="cls-11" d="M713.1,766.73c.1,1.85,1,3.41,3.38,3.41a2.63,2.63,0,0,0,2.76-1.73h2.11c-.36,1.85-2.14,3.48-4.87,3.48-3.67,0-5.45-2.57-5.45-5.71s1.94-5.74,5.38-5.74a4.91,4.91,0,0,1,5,4.92,8.09,8.09,0,0,1-.1,1.37Zm0-1.58h6.31a2.94,2.94,0,0,0-3.07-3.1A3,3,0,0,0,713.12,765.15Z"/><path class="cls-11" d="M731.22,762.65a4,4,0,0,0-1-.12c-2.42,0-3.62,1.71-3.62,4.32v4.78h-2.09v-10.9h2.09v2.14a4,4,0,0,1,3.62-2.3,2.66,2.66,0,0,1,1,.17Z"/><path class="cls-11" d="M734.27,754.9a1.71,1.71,0,0,1,1.7,1.71,1.69,1.69,0,0,1-1.7,1.66,1.66,1.66,0,0,1-1.66-1.66A1.69,1.69,0,0,1,734.27,754.9Zm-1,5.83h2.09v10.9h-2.09Z"/><path class="cls-11" d="M739.07,760.73h2.09v1.92a4.07,4.07,0,0,1,3.84-2.21,3.78,3.78,0,0,1,3.26,1.44,5.2,5.2,0,0,1,.84,3.31v6.43H747v-5.79c0-2-.72-3.55-2.76-3.55s-3.1,1.78-3.1,3.72v5.62h-2.09Z"/><path class="cls-11" d="M763.21,772.32c0,3.89-2.18,5.45-5.81,5.45s-5.38-2.3-5.52-4.75H754a3.06,3.06,0,0,0,3.41,2.9c2.33,0,3.74-1,3.74-3.6v-2.59a4.34,4.34,0,0,1-3.82,2.16,5.73,5.73,0,0,1,0-11.45,4.34,4.34,0,0,1,3.82,2.16v-1.87h2.06Zm-9.41-6.14a3.68,3.68,0,1,0,3.65-3.86A3.65,3.65,0,0,0,753.8,766.18Z"/><path class="cls-11" d="M774.37,766.27a3.55,3.55,0,0,0,3.79,3.77c1.94,0,3.34-1.1,3.34-2.86,0-2-1.73-2.62-3.19-3-3-1-5.52-1.8-5.52-5.21,0-2.66,2.21-4.49,5.23-4.49a5,5,0,0,1,5.28,5.14h-2.18a2.92,2.92,0,0,0-3-3.17c-1.85,0-3.1,1-3.1,2.52,0,1.82,1.51,2.42,3.12,2.9,2.59.84,5.59,1.85,5.59,5.11S781.19,772,778,772a5.51,5.51,0,0,1-5.81-5.74Z"/><path class="cls-11" d="M791,766.18l5,5.45h-2.64l-4.56-4.95v4.95h-2.09v-16.8h2.09V765.7l4.56-5H796Z"/><path class="cls-11" d="M799.16,754.9a1.71,1.71,0,0,1,1.7,1.71,1.69,1.69,0,0,1-1.7,1.66,1.66,1.66,0,0,1-1.66-1.66A1.69,1.69,0,0,1,799.16,754.9Zm-1,5.83h2.09v10.9h-2.09Z"/><path class="cls-11" d="M804,754.82H806v16.8H804Z"/><path class="cls-11" d="M809.79,754.82h2.09v16.8h-2.09Z"/><path class="cls-11" d="M823.5,768.62c0,2.18-1.82,3.26-4.27,3.26s-4.51-1.3-4.51-3.94h2c0,1.66,1.1,2.28,2.57,2.28s2.18-.48,2.18-1.56-1.3-1.34-3.48-2.09c-1.66-.53-3-1-3-3s1.8-3.14,4.06-3.14,4.2,1.49,4.2,3.67h-2c0-1.27-.77-2-2.21-2-1.15,0-2,.53-2,1.51s1.13,1.27,3.14,1.92C821.89,766.08,823.5,766.56,823.5,768.62Z"/><path class="cls-11" d="M641.17,814.39v5.5h7.25v2h-7.25v5.4h7.25v2H639v-16.8h9.43v2Z"/><path class="cls-11" d="M660.35,829.23h-2.4l-2.5-3.86-2.5,3.86h-2.4l3.7-5.5-3.65-5.4H653l2.45,3.79,2.45-3.79h2.4l-3.65,5.4Z"/><path class="cls-11" d="M664.69,820.2a4.3,4.3,0,0,1,3.79-2.16,5.73,5.73,0,0,1,0,11.45,4.3,4.3,0,0,1-3.79-2.16v7.8H662.6v-16.8h2.09Zm0,3.58a3.67,3.67,0,1,0,3.7-3.86A3.66,3.66,0,0,0,664.69,823.78Z"/><path class="cls-11" d="M678.2,824.33c.1,1.85,1,3.41,3.38,3.41a2.63,2.63,0,0,0,2.76-1.73h2.11c-.36,1.85-2.14,3.48-4.87,3.48-3.67,0-5.45-2.57-5.45-5.71s1.94-5.74,5.38-5.74a4.91,4.91,0,0,1,5,4.92,8.08,8.08,0,0,1-.1,1.37Zm0-1.58h6.31a2.94,2.94,0,0,0-3.07-3.1A3,3,0,0,0,678.23,822.75Z"/><path class="cls-11" d="M697.24,822.29c-.17-1.34-1-2.38-3-2.38-2.26,0-3.38,1.82-3.38,3.86s1.08,3.84,3.5,3.84a2.64,2.64,0,0,0,2.93-2.14h2.09c-.34,2.26-2,4-5.16,4-3.55,0-5.45-2.76-5.45-5.71s1.9-5.74,5.42-5.74,5,2.14,5.16,4.25Z"/><path class="cls-11" d="M708.2,829.23a12.34,12.34,0,0,1-1.87.14c-1.34,0-3.43-.24-3.43-3.82v-5.47h-2v-1.75h2v-3.67H705v3.67h2.83v1.75H705v5c0,2.11.74,2.38,1.8,2.38a12.21,12.21,0,0,0,1.42-.1Z"/><path class="cls-11" d="M720.9,818.33v10.9h-2.06v-1.9a4.34,4.34,0,0,1-3.82,2.16A5.73,5.73,0,0,1,715,818a4.34,4.34,0,0,1,3.82,2.16v-1.87Zm-2.06,5.45a3.68,3.68,0,1,0-3.7,3.84A3.68,3.68,0,0,0,718.84,823.78Z"/><path class="cls-11" d="M730.57,829.23a12.34,12.34,0,0,1-1.87.14c-1.34,0-3.43-.24-3.43-3.82v-5.47h-2v-1.75h2v-3.67h2.09v3.67h2.83v1.75h-2.83v5c0,2.11.74,2.38,1.8,2.38a12.21,12.21,0,0,0,1.42-.1Z"/><path class="cls-11" d="M733.83,812.5a1.71,1.71,0,0,1,1.7,1.7,1.69,1.69,0,0,1-1.7,1.66,1.66,1.66,0,0,1-1.66-1.66A1.69,1.69,0,0,1,733.83,812.5Zm-1,5.83h2.09v10.9H732.8Z"/><path class="cls-11" d="M737.75,823.78a5.74,5.74,0,1,1,5.71,5.71A5.58,5.58,0,0,1,737.75,823.78Zm9.41,0a3.68,3.68,0,1,0-3.7,3.84A3.68,3.68,0,0,0,747.16,823.78Z"/><path class="cls-11" d="M752.07,818.33h2.09v1.92A4.07,4.07,0,0,1,758,818a3.78,3.78,0,0,1,3.26,1.44,5.2,5.2,0,0,1,.84,3.31v6.43H760v-5.79c0-2-.72-3.55-2.76-3.55s-3.1,1.78-3.1,3.72v5.62h-2.09Z"/><path class="cls-11" d="M770.82,823.78a5.74,5.74,0,1,1,5.71,5.71A5.58,5.58,0,0,1,770.82,823.78Zm9.41,0a3.68,3.68,0,1,0-3.7,3.84A3.68,3.68,0,0,0,780.23,823.78Z"/><path class="cls-11" d="M791.1,814.34a3.82,3.82,0,0,0-1.22-.19c-.89,0-1.9.1-1.9,2.06v2.11h3.12v1.75H788v9.14h-2.09v-9.14h-2.35v-1.75h2.35v-1.9c0-4,2.42-4.15,3.72-4.15a3.23,3.23,0,0,1,1.49.29Z"/><path class="cls-11" d="M646.67,856.06v2H639v-16.8h2.18v14.83Z"/><path class="cls-11" d="M649.93,853.13c.1,1.85,1,3.41,3.38,3.41a2.63,2.63,0,0,0,2.76-1.73h2.11c-.36,1.85-2.14,3.48-4.87,3.48-3.67,0-5.45-2.57-5.45-5.71s1.94-5.74,5.38-5.74a4.91,4.91,0,0,1,5,4.92,8.09,8.09,0,0,1-.1,1.37Zm0-1.58h6.31a2.94,2.94,0,0,0-3.07-3.1A3,3,0,0,0,650,851.55Z"/><path class="cls-11" d="M671.89,847.13V858h-2.06v-1.9a4.34,4.34,0,0,1-3.82,2.16,5.73,5.73,0,0,1,0-11.45,4.34,4.34,0,0,1,3.82,2.16v-1.87Zm-2.06,5.45a3.68,3.68,0,1,0-3.7,3.84A3.68,3.68,0,0,0,669.83,852.58Z"/><path class="cls-11" d="M684.16,856.13a4.34,4.34,0,0,1-3.82,2.16,5.73,5.73,0,0,1,0-11.45,4.34,4.34,0,0,1,3.82,2.16v-7.78h2.06V858h-2.06Zm0-3.55a3.68,3.68,0,1,0-3.7,3.84A3.68,3.68,0,0,0,684.16,852.58Z"/><path class="cls-11" d="M691.19,853.13c.1,1.85,1,3.41,3.38,3.41a2.63,2.63,0,0,0,2.76-1.73h2.11c-.36,1.85-2.14,3.48-4.87,3.48-3.67,0-5.45-2.57-5.45-5.71s1.94-5.74,5.38-5.74a4.91,4.91,0,0,1,5,4.92,8.09,8.09,0,0,1-.1,1.37Zm0-1.58h6.31a2.94,2.94,0,0,0-3.07-3.1A3,3,0,0,0,691.21,851.55Z"/><path class="cls-11" d="M709.31,849a4,4,0,0,0-1-.12c-2.42,0-3.62,1.71-3.62,4.32V858h-2.09v-10.9h2.09v2.14a4,4,0,0,1,3.62-2.3,2.66,2.66,0,0,1,1,.17Z"/><path class="cls-11" d="M719,855c0,2.18-1.82,3.26-4.27,3.26s-4.51-1.3-4.51-3.94h2c0,1.66,1.1,2.28,2.57,2.28s2.18-.48,2.18-1.56-1.3-1.34-3.48-2.09c-1.66-.53-3-1-3-3s1.8-3.14,4.06-3.14,4.2,1.49,4.2,3.67h-2c0-1.27-.77-2-2.21-2-1.15,0-2,.53-2,1.51s1.13,1.27,3.14,1.92C717.35,852.48,719,853,719,855Z"/><path class="cls-11" d="M721.93,841.22H724V849a4.07,4.07,0,0,1,3.84-2.21,3.78,3.78,0,0,1,3.26,1.44,5.2,5.2,0,0,1,.84,3.31V858h-2.09v-5.79c0-2-.72-3.55-2.76-3.55s-3.1,1.78-3.1,3.72V858h-2.09Z"/><path class="cls-11" d="M736.52,841.3a1.71,1.71,0,0,1,1.7,1.71,1.69,1.69,0,0,1-1.7,1.66,1.66,1.66,0,0,1-1.66-1.66A1.69,1.69,0,0,1,736.52,841.3Zm-1,5.83h2.09V858h-2.09Z"/><path class="cls-11" d="M743.41,849a4.3,4.3,0,0,1,3.79-2.16,5.73,5.73,0,0,1,0,11.45,4.3,4.3,0,0,1-3.79-2.16v7.8h-2.09v-16.8h2.09Zm0,3.58a3.67,3.67,0,1,0,3.7-3.86A3.66,3.66,0,0,0,743.41,852.58Z"/><path class="cls-11" d="M289,358.83h-2.21V347.11L282,358.83h-1.68l-4.85-11.71v11.71h-2.18V342h2.11l5.76,13.44L286.89,342H289Z"/><path class="cls-11" d="M291.85,353.38a5.74,5.74,0,1,1,5.71,5.71A5.58,5.58,0,0,1,291.85,353.38Zm9.41,0a3.68,3.68,0,1,0-3.7,3.84A3.68,3.68,0,0,0,301.26,353.38Z"/><path class="cls-11" d="M314.7,356.93a4.34,4.34,0,0,1-3.82,2.16,5.73,5.73,0,0,1,0-11.45,4.34,4.34,0,0,1,3.82,2.16V342h2.06v16.8H314.7Zm0-3.55a3.68,3.68,0,1,0-3.7,3.84A3.68,3.68,0,0,0,314.7,353.38Z"/><path class="cls-11" d="M330.33,347.93v10.9h-2.09v-1.94a4.09,4.09,0,0,1-3.84,2.21,3.88,3.88,0,0,1-3.29-1.42,5.25,5.25,0,0,1-.82-3.31v-6.43h2.09v5.76c0,2,.72,3.55,2.74,3.55s3.12-1.75,3.12-3.72v-5.59Z"/><path class="cls-11" d="M334.07,342h2.09v16.8h-2.09Z"/><path class="cls-11" d="M350.49,347.93v10.9h-2.06v-1.9a4.34,4.34,0,0,1-3.82,2.16,5.73,5.73,0,0,1,0-11.45,4.34,4.34,0,0,1,3.82,2.16v-1.87Zm-2.06,5.45a3.68,3.68,0,1,0-3.7,3.84A3.68,3.68,0,0,0,348.42,353.38Z"/><path class="cls-11" d="M361,349.85a4,4,0,0,0-1-.12c-2.42,0-3.62,1.7-3.62,4.32v4.78h-2.09v-10.9h2.09v2.14a4,4,0,0,1,3.62-2.3,2.66,2.66,0,0,1,1,.17Z"/><path class="cls-11" d="M185,382.44a7.85,7.85,0,0,1-7.87,5.57,8.52,8.52,0,0,1-8.81-8.81c0-4.56,3.24-8.76,8.5-8.76,4.87,0,7.56,2.76,8.18,6.26h-2.3a5.36,5.36,0,0,0-5.62-4.3c-4.13,0-6.53,3.26-6.53,6.79a6.55,6.55,0,0,0,6.84,6.84,5.57,5.57,0,0,0,5.21-3.6Z"/><path class="cls-11" d="M186.95,382.18a5.74,5.74,0,1,1,5.71,5.71A5.58,5.58,0,0,1,186.95,382.18Zm9.41,0a3.68,3.68,0,1,0-3.7,3.84A3.68,3.68,0,0,0,196.36,382.18Z"/><path class="cls-11" d="M201.28,376.73h2.09v1.92a4.07,4.07,0,0,1,3.84-2.21,3.78,3.78,0,0,1,3.26,1.44,5.2,5.2,0,0,1,.84,3.31v6.43h-2.09v-5.78c0-2-.72-3.55-2.76-3.55s-3.1,1.78-3.1,3.72v5.62h-2.09Z"/><path class="cls-11" d="M222.71,384.62c0,2.18-1.82,3.26-4.27,3.26s-4.51-1.3-4.51-3.94h2c0,1.66,1.1,2.28,2.57,2.28s2.18-.48,2.18-1.56-1.3-1.34-3.48-2.09c-1.66-.53-3-1-3-3s1.8-3.14,4.06-3.14,4.2,1.49,4.2,3.67h-2c0-1.27-.77-2-2.21-2-1.15,0-2,.53-2,1.51s1.13,1.27,3.14,1.92C221.1,382.08,222.71,382.56,222.71,384.62Z"/><path class="cls-11" d="M231.18,387.63a12.41,12.41,0,0,1-1.87.14c-1.34,0-3.43-.24-3.43-3.82v-5.47h-2v-1.75h2v-3.67H228v3.67h2.83v1.75H228v5c0,2.11.74,2.38,1.8,2.38a12,12,0,0,0,1.42-.1Z"/><path class="cls-11" d="M240.16,378.65a4,4,0,0,0-1-.12c-2.42,0-3.62,1.7-3.62,4.32v4.78h-2.09v-10.9h2.09v2.14a4,4,0,0,1,3.62-2.3,2.66,2.66,0,0,1,1,.17Z"/><path class="cls-11" d="M252,376.73v10.9H249.9v-1.94a4.09,4.09,0,0,1-3.84,2.21,3.88,3.88,0,0,1-3.29-1.42,5.25,5.25,0,0,1-.82-3.31v-6.43H244v5.76c0,2,.72,3.55,2.74,3.55s3.12-1.75,3.12-3.72v-5.59Z"/><path class="cls-11" d="M263.39,380.69c-.17-1.34-1-2.38-3-2.38-2.26,0-3.38,1.82-3.38,3.86s1.08,3.84,3.5,3.84a2.64,2.64,0,0,0,2.93-2.14h2.09c-.34,2.26-2,4-5.16,4-3.55,0-5.45-2.76-5.45-5.71s1.9-5.74,5.42-5.74,5,2.14,5.16,4.25Z"/><path class="cls-11" d="M274.36,387.63a12.41,12.41,0,0,1-1.87.14c-1.34,0-3.43-.24-3.43-3.82v-5.47h-2v-1.75h2v-3.67h2.09v3.67H274v1.75h-2.83v5c0,2.11.74,2.38,1.8,2.38a12,12,0,0,0,1.42-.1Z"/><path class="cls-11" d="M277.62,370.9a1.71,1.71,0,0,1,1.7,1.7,1.69,1.69,0,0,1-1.7,1.66A1.66,1.66,0,0,1,276,372.6,1.69,1.69,0,0,1,277.62,370.9Zm-1,5.83h2.09v10.9h-2.09Z"/><path class="cls-11" d="M281.53,382.18a5.74,5.74,0,1,1,5.71,5.71A5.58,5.58,0,0,1,281.53,382.18Zm9.41,0a3.68,3.68,0,1,0-3.7,3.84A3.68,3.68,0,0,0,290.94,382.18Z"/><path class="cls-11" d="M295.86,376.73h2.09v1.92a4.07,4.07,0,0,1,3.84-2.21,3.78,3.78,0,0,1,3.26,1.44,5.2,5.2,0,0,1,.84,3.31v6.43h-2.09v-5.78c0-2-.72-3.55-2.76-3.55s-3.1,1.78-3.1,3.72v5.62h-2.09Z"/><path class="cls-11" d="M318.25,372.79h-4.34v-2h10.9v2h-4.37v14.83h-2.18Z"/><path class="cls-11" d="M324.06,382.18a5.74,5.74,0,1,1,5.71,5.71A5.58,5.58,0,0,1,324.06,382.18Zm9.41,0a3.68,3.68,0,1,0-3.7,3.84A3.68,3.68,0,0,0,333.47,382.18Z"/><path class="cls-11" d="M338.2,389h2.11a2.79,2.79,0,0,0,3,3c1.87,0,3-.74,3-3.24v-3.07a4,4,0,0,1-3.82,2.21,3.86,3.86,0,0,1-3.31-1.39,5.38,5.38,0,0,1-.82-3.41v-6.36h2.09v5.71c0,2.11.62,3.6,2.78,3.6s3.07-1.75,3.07-3.72v-5.59h2.09v12c0,3.48-1.82,5-5.18,5C340.19,393.77,338.27,392.19,338.2,389Z"/><path class="cls-11" d="M360,384.62c0,2.18-1.82,3.26-4.27,3.26s-4.51-1.3-4.51-3.94h2c0,1.66,1.1,2.28,2.57,2.28s2.18-.48,2.18-1.56-1.3-1.34-3.48-2.09c-1.66-.53-3-1-3-3s1.8-3.14,4.06-3.14,4.2,1.49,4.2,3.67h-2c0-1.27-.77-2-2.21-2-1.15,0-2,.53-2,1.51s1.13,1.27,3.14,1.92C358.4,382.08,360,382.56,360,384.62Z"/></g></g></svg>