<svg xmlns="http://www.w3.org/2000/svg" viewBox="0 0 866 937.41"><defs><style>.cls-1,.cls-3,.cls-7{fill:none;}.cls-1,.cls-2{stroke:#dc00dc;stroke-width:20px;}.cls-1,.cls-2,.cls-3{stroke-miterlimit:10;}.cls-2{fill:#f0f;}.cls-3{stroke:#9b12fe;stroke-width:8px;}.cls-4,.cls-6,.cls-8{fill:#fff;}.cls-5{fill:#9b12fe;}.cls-6{stroke:#f0f;}.cls-6,.cls-7{stroke-linecap:round;stroke-linejoin:round;stroke-width:4px;}.cls-7{stroke:#fff;}.cls-8{font-size:24px;font-family:GTWalsheimRegular, GT Walsheim;}.cls-9{letter-spacing:-0.03em;}.cls-10{letter-spacing:0em;}.cls-11{letter-spacing:-0.02em;}.cls-12{letter-spacing:0em;}.cls-13{letter-spacing:0em;}.cls-14{letter-spacing:-0.01em;}.cls-15{letter-spacing:-0.02em;}.cls-16{letter-spacing:-0.08em;}</style></defs><title>socialization-femme_1</title><g id="Layer_2" data-name="Layer 2"><g id="Layer_2-2" data-name="Layer 2"><path class="cls-1" d="M741,813.59V557.43A109.84,109.84,0,0,0,631.16,447.59H119.84A109.84,109.84,0,0,1,10,337.75V244.43A109.84,109.84,0,0,1,119.84,134.59H570"/><circle class="cls-2" cx="741" cy="822.59" r="92"/><path class="cls-3" d="M616,60.57s-1.05-54.71,40-54.71S663.3,55.31,616,60.57Z"/><path class="cls-3" d="M616.76,62.43S562,63.48,562,22.45,611.5,15.08,616.76,62.43Z"/><rect class="cls-4" x="521.26" y="94.24" width="189.39" height="106.27"/><rect class="cls-4" x="516" y="63.73" width="199.91" height="23.15"/><line class="cls-3" x1="616.76" y1="200.51" x2="616.76" y2="60.33"/><path class="cls-5" d="M552.1,672.71h-190A13.11,13.11,0,0,0,349,685.78V795.4a13.11,13.11,0,0,0,13.08,13.08h25.3L418,839.08V808.47H552.1a13.11,13.11,0,0,0,13.08-13.08V685.78A13.11,13.11,0,0,0,552.1,672.71Z"/><path class="cls-4" d="M695.37,771.2h-190a13.11,13.11,0,0,0-13.08,13.08V893.89A13.11,13.11,0,0,0,505.34,907h29.22v30.44L565,907H695.37a13.11,13.11,0,0,0,13.08-13.08V784.28A13.11,13.11,0,0,0,695.37,771.2Z"/><rect class="cls-6" x="143" y="395.45" width="312" height="92.83"/><polygon class="cls-6" points="455 394.6 143 394.6 181.28 301.77 416.72 301.77 455 394.6"/><rect class="cls-6" x="143" y="488.28" width="312" height="92.83"/><polyline class="cls-6" points="194.68 342.65 194.68 370.76 228.18 370.76 228.18 342.65"/><polyline class="cls-6" points="185.59 350.74 211.91 326.47 237.27 350.74"/><polyline class="cls-6" points="367.91 342.65 367.91 370.76 401.4 370.76 401.4 342.65"/><polyline class="cls-6" points="358.82 350.74 385.13 326.47 410.5 350.74"/><polyline class="cls-6" points="273.64 349.89 299.96 325.62 325.32 349.89"/><polyline class="cls-6" points="282.73 341.8 282.73 386.94 316.23 386.94 316.23 341.8"/><rect class="cls-6" x="257.85" y="375.87" width="82.31" height="19.59"/><line class="cls-6" x1="299" y1="375.87" x2="299" y2="395.45"/><line class="cls-6" x1="278.9" y1="375.87" x2="278.9" y2="395.45"/><line class="cls-6" x1="320.06" y1="375.87" x2="320.06" y2="395.45"/><rect class="cls-6" x="257.85" y="467.84" width="82.31" height="19.59"/><line class="cls-6" x1="299" y1="467.84" x2="299" y2="487.43"/><line class="cls-6" x1="278.9" y1="467.84" x2="278.9" y2="487.43"/><line class="cls-6" x1="320.06" y1="467.84" x2="320.06" y2="487.43"/><rect class="cls-6" x="194.68" y="419.3" width="33.5" height="45.14"/><line class="cls-6" x1="211.43" y1="419.3" x2="211.43" y2="464.44"/><line class="cls-6" x1="195.64" y1="441.44" x2="228.18" y2="441.44"/><rect class="cls-6" x="366.95" y="419.3" width="33.5" height="45.14"/><line class="cls-6" x1="383.7" y1="419.3" x2="383.7" y2="464.44"/><line class="cls-6" x1="367.91" y1="441.44" x2="400.45" y2="441.44"/><rect class="cls-6" x="194.68" y="512.13" width="33.5" height="45.14"/><line class="cls-6" x1="211.43" y1="512.13" x2="211.43" y2="557.27"/><line class="cls-6" x1="195.64" y1="534.27" x2="228.18" y2="534.27"/><rect class="cls-6" x="366.95" y="512.13" width="33.5" height="45.14"/><line class="cls-6" x1="383.7" y1="512.13" x2="383.7" y2="557.27"/><line class="cls-6" x1="367.91" y1="534.27" x2="400.45" y2="534.27"/><rect class="cls-6" x="278.9" y="426.11" width="41.15" height="41.73"/><rect class="cls-6" x="267.42" y="510.43" width="62.21" height="56.21"/><line class="cls-6" x1="177.45" y1="370.76" x2="244.45" y2="370.76"/><line class="cls-6" x1="351.64" y1="370.76" x2="418.63" y2="370.76"/><rect class="cls-6" x="224.35" y="581.11" width="149.3" height="14.48"/><rect class="cls-6" x="252.85" y="566.63" width="92.29" height="14.48"/><line class="cls-6" x1="298.04" y1="510.43" x2="298.04" y2="566.63"/><line class="cls-7" x1="185.11" y1="304.33" x2="185.11" y2="285.59"/><line class="cls-7" x1="199.41" y1="289.85" x2="199.41" y2="304.33"/><line class="cls-7" x1="213.7" y1="304.33" x2="213.7" y2="285.59"/><line class="cls-7" x1="228" y1="289.85" x2="228" y2="304.33"/><line class="cls-7" x1="242.29" y1="304.33" x2="242.29" y2="285.59"/><line class="cls-7" x1="256.59" y1="304.33" x2="256.59" y2="289.85"/><line class="cls-7" x1="270.89" y1="304.33" x2="270.89" y2="285.59"/><line class="cls-7" x1="285.18" y1="304.33" x2="285.18" y2="289.85"/><line class="cls-7" x1="299.48" y1="304.33" x2="299.48" y2="285.59"/><line class="cls-7" x1="313.77" y1="304.33" x2="313.77" y2="289.85"/><line class="cls-7" x1="328.07" y1="304.33" x2="328.07" y2="285.59"/><line class="cls-7" x1="342.37" y1="304.33" x2="342.37" y2="289.85"/><line class="cls-7" x1="356.66" y1="304.33" x2="356.66" y2="285.59"/><line class="cls-7" x1="370.96" y1="304.33" x2="370.96" y2="289.85"/><line class="cls-7" x1="385.25" y1="304.33" x2="385.25" y2="285.59"/><line class="cls-7" x1="399.55" y1="304.33" x2="399.55" y2="289.85"/><line class="cls-7" x1="413.85" y1="304.33" x2="413.85" y2="285.59"/><line class="cls-7" x1="185.11" y1="296.66" x2="413.85" y2="296.66"/><path class="cls-5" d="M866,264.22c-29.52-8.37-195.3-92.46-215.66-95.74-21-3.39-33.23,5.42-40.23,4.29l-28-4.52c-7-1.13-14.58,1.24-15.71,8.25s5.31,11.64,12.32,12.77l21,3.39s-8.14,5.88-22.15,3.61-43.85-17.86-57.86-20.12-16.84,15.25-16.84,15.25l10.51,1.7s2.37,7.57,19.89,10.4,54.36,19.56,78.88,23.52,19.21-7.68,61.25-.9c40.78,6.58,135.8,96.34,192.61,110Z"/><text class="cls-8" transform="translate(198.31 85.2)">Social Con<tspan class="cls-9" x="117.5" y="0">v</tspan><tspan class="cls-10" x="128.47" y="0">ention</tspan></text><text class="cls-8" transform="translate(10.12 741.2)">Social and<tspan x="0" y="28.8">Humani</tspan><tspan class="cls-11" x="82.99" y="28.8">s</tspan><tspan class="cls-12" x="93.41" y="28.8">t Skills</tspan><tspan x="0" y="57.6" xml:space="preserve"> </tspan><tspan x="0" y="86.4">Expec</tspan><tspan class="cls-13" x="63.29" y="86.4">t</tspan><tspan x="71.33" y="86.4">ation </tspan><tspan class="cls-14" x="132.72" y="86.4">o</tspan><tspan class="cls-12" x="145.92" y="86.4">f </tspan><tspan x="0" y="115.2">Emotional </tspan><tspan class="cls-15" x="113.49" y="115.2">L</tspan><tspan x="123.21" y="115.2">abor</tspan></text><text class="cls-8" transform="translate(521.12 357.2)">Dome<tspan class="cls-11" x="62.54" y="0">s</tspan><tspan x="72.96" y="0">tic + </tspan><tspan x="0" y="28.8">Emotional </tspan><tspan class="cls-16" x="113.49" y="28.8">T</tspan><tspan x="122.95" y="28.8">oys</tspan></text></g></g></svg>