<svg xmlns="http://www.w3.org/2000/svg" viewBox="0 0 866 937.41"><defs><style>.cls-1,.cls-3,.cls-7{fill:none;}.cls-1,.cls-2{stroke:#dc00dc;stroke-width:20px;}.cls-1,.cls-2,.cls-3{stroke-miterlimit:10;}.cls-2{fill:#f0f;}.cls-3{stroke:#9b12fe;stroke-width:8px;}.cls-4,.cls-6{fill:#fff;}.cls-5{fill:#9b12fe;}.cls-6{stroke:#f0f;}.cls-6,.cls-7{stroke-linecap:round;stroke-linejoin:round;stroke-width:4px;}.cls-7{stroke:#fff;}</style></defs><title>socialization-femme_2</title><g id="Layer_2" data-name="Layer 2"><g id="Layer_2-2" data-name="Layer 2"><path class="cls-1" d="M741,813.59V557.43A109.84,109.84,0,0,0,631.16,447.59H119.84A109.84,109.84,0,0,1,10,337.75V244.43A109.84,109.84,0,0,1,119.84,134.59H570"/><circle class="cls-2" cx="741" cy="822.59" r="92"/><path class="cls-3" d="M616,60.57s-1.05-54.71,40-54.71S663.3,55.31,616,60.57Z"/><path class="cls-3" d="M616.76,62.43S562,63.48,562,22.45,611.5,15.08,616.76,62.43Z"/><rect class="cls-4" x="521.26" y="94.24" width="189.39" height="106.27"/><rect class="cls-4" x="516" y="63.73" width="199.91" height="23.15"/><line class="cls-3" x1="616.76" y1="200.51" x2="616.76" y2="60.33"/><path class="cls-5" d="M552.1,672.71h-190A13.11,13.11,0,0,0,349,685.78V795.4a13.11,13.11,0,0,0,13.08,13.08h25.3L418,839.08V808.47H552.1a13.11,13.11,0,0,0,13.08-13.08V685.78A13.11,13.11,0,0,0,552.1,672.71Z"/><path class="cls-4" d="M695.37,771.2h-190a13.11,13.11,0,0,0-13.08,13.08V893.89A13.11,13.11,0,0,0,505.34,907h29.22v30.44L565,907H695.37a13.11,13.11,0,0,0,13.08-13.08V784.28A13.11,13.11,0,0,0,695.37,771.2Z"/><rect class="cls-6" x="143" y="395.45" width="312" height="92.83"/><polygon class="cls-6" points="455 394.6 143 394.6 181.28 301.77 416.72 301.77 455 394.6"/><rect class="cls-6" x="143" y="488.28" width="312" height="92.83"/><polyline class="cls-6" points="194.68 342.65 194.68 370.76 228.18 370.76 228.18 342.65"/><polyline class="cls-6" points="185.59 350.74 211.91 326.47 237.27 350.74"/><polyline class="cls-6" points="367.91 342.65 367.91 370.76 401.4 370.76 401.4 342.65"/><polyline class="cls-6" points="358.82 350.74 385.13 326.47 410.5 350.74"/><polyline class="cls-6" points="273.64 349.89 299.96 325.62 325.32 349.89"/><polyline class="cls-6" points="282.73 341.8 282.73 386.94 316.23 386.94 316.23 341.8"/><rect class="cls-6" x="257.85" y="375.87" width="82.31" height="19.59"/><line class="cls-6" x1="299" y1="375.87" x2="299" y2="395.45"/><line class="cls-6" x1="278.9" y1="375.87" x2="278.9" y2="395.45"/><line class="cls-6" x1="320.06" y1="375.87" x2="320.06" y2="395.45"/><rect class="cls-6" x="257.85" y="467.84" width="82.31" height="19.59"/><line class="cls-6" x1="299" y1="467.84" x2="299" y2="487.43"/><line class="cls-6" x1="278.9" y1="467.84" x2="278.9" y2="487.43"/><line class="cls-6" x1="320.06" y1="467.84" x2="320.06" y2="487.43"/><rect class="cls-6" x="194.68" y="419.3" width="33.5" height="45.14"/><line class="cls-6" x1="211.43" y1="419.3" x2="211.43" y2="464.44"/><line class="cls-6" x1="195.64" y1="441.44" x2="228.18" y2="441.44"/><rect class="cls-6" x="366.95" y="419.3" width="33.5" height="45.14"/><line class="cls-6" x1="383.7" y1="419.3" x2="383.7" y2="464.44"/><line class="cls-6" x1="367.91" y1="441.44" x2="400.45" y2="441.44"/><rect class="cls-6" x="194.68" y="512.13" width="33.5" height="45.14"/><line class="cls-6" x1="211.43" y1="512.13" x2="211.43" y2="557.27"/><line class="cls-6" x1="195.64" y1="534.27" x2="228.18" y2="534.27"/><rect class="cls-6" x="366.95" y="512.13" width="33.5" height="45.14"/><line class="cls-6" x1="383.7" y1="512.13" x2="383.7" y2="557.27"/><line class="cls-6" x1="367.91" y1="534.27" x2="400.45" y2="534.27"/><rect class="cls-6" x="278.9" y="426.11" width="41.15" height="41.73"/><rect class="cls-6" x="267.42" y="510.43" width="62.21" height="56.21"/><line class="cls-6" x1="177.45" y1="370.76" x2="244.45" y2="370.76"/><line class="cls-6" x1="351.64" y1="370.76" x2="418.63" y2="370.76"/><rect class="cls-6" x="224.35" y="581.11" width="149.3" height="14.48"/><rect class="cls-6" x="252.85" y="566.63" width="92.29" height="14.48"/><line class="cls-6" x1="298.04" y1="510.43" x2="298.04" y2="566.63"/><line class="cls-7" x1="185.11" y1="304.33" x2="185.11" y2="285.59"/><line class="cls-7" x1="199.41" y1="289.85" x2="199.41" y2="304.33"/><line class="cls-7" x1="213.7" y1="304.33" x2="213.7" y2="285.59"/><line class="cls-7" x1="228" y1="289.85" x2="228" y2="304.33"/><line class="cls-7" x1="242.29" y1="304.33" x2="242.29" y2="285.59"/><line class="cls-7" x1="256.59" y1="304.33" x2="256.59" y2="289.85"/><line class="cls-7" x1="270.89" y1="304.33" x2="270.89" y2="285.59"/><line class="cls-7" x1="285.18" y1="304.33" x2="285.18" y2="289.85"/><line class="cls-7" x1="299.48" y1="304.33" x2="299.48" y2="285.59"/><line class="cls-7" x1="313.77" y1="304.33" x2="313.77" y2="289.85"/><line class="cls-7" x1="328.07" y1="304.33" x2="328.07" y2="285.59"/><line class="cls-7" x1="342.37" y1="304.33" x2="342.37" y2="289.85"/><line class="cls-7" x1="356.66" y1="304.33" x2="356.66" y2="285.59"/><line class="cls-7" x1="370.96" y1="304.33" x2="370.96" y2="289.85"/><line class="cls-7" x1="385.25" y1="304.33" x2="385.25" y2="285.59"/><line class="cls-7" x1="399.55" y1="304.33" x2="399.55" y2="289.85"/><line class="cls-7" x1="413.85" y1="304.33" x2="413.85" y2="285.59"/><line class="cls-7" x1="185.11" y1="296.66" x2="413.85" y2="296.66"/><path class="cls-5" d="M866,264.22c-29.52-8.37-195.3-92.46-215.66-95.74-21-3.39-33.23,5.42-40.23,4.29l-28-4.52c-7-1.13-14.58,1.24-15.71,8.25s5.31,11.64,12.32,12.77l21,3.39s-8.14,5.88-22.15,3.61-43.85-17.86-57.86-20.12-16.84,15.25-16.84,15.25l10.51,1.7s2.37,7.57,19.89,10.4,54.36,19.56,78.88,23.52,19.21-7.68,61.25-.9c40.78,6.58,135.8,96.34,192.61,110Z"/><path class="cls-4" d="M201.57,79.85a3.55,3.55,0,0,0,3.79,3.77c1.95,0,3.34-1.1,3.34-2.86,0-2-1.73-2.62-3.19-3-3-1-5.52-1.8-5.52-5.21,0-2.66,2.21-4.49,5.23-4.49a5,5,0,0,1,5.28,5.14h-2.18a2.92,2.92,0,0,0-3-3.17c-1.85,0-3.1,1-3.1,2.52,0,1.82,1.51,2.42,3.12,2.9,2.59.84,5.59,1.85,5.59,5.11s-2.5,5.06-5.69,5.06a5.51,5.51,0,0,1-5.81-5.74Z"/><path class="cls-4" d="M213,79.75a5.74,5.74,0,1,1,5.71,5.71A5.58,5.58,0,0,1,213,79.75Zm9.41,0a3.68,3.68,0,1,0-3.7,3.84A3.68,3.68,0,0,0,222.4,79.75Z"/><path class="cls-4" d="M235,78.27c-.17-1.34-1-2.38-3-2.38-2.26,0-3.38,1.82-3.38,3.86s1.08,3.84,3.5,3.84A2.64,2.64,0,0,0,235,81.46h2.09c-.34,2.26-2,4-5.16,4-3.55,0-5.45-2.76-5.45-5.71s1.9-5.74,5.42-5.74,5,2.14,5.16,4.25Z"/><path class="cls-4" d="M241,68.47a1.71,1.71,0,0,1,1.71,1.7A1.69,1.69,0,0,1,241,71.83a1.66,1.66,0,0,1-1.66-1.66A1.69,1.69,0,0,1,241,68.47Zm-1,5.83h2.09V85.2H240Z"/><path class="cls-4" d="M256.43,74.31V85.2h-2.06v-1.9a4.34,4.34,0,0,1-3.82,2.16,5.73,5.73,0,0,1,0-11.45,4.34,4.34,0,0,1,3.82,2.16V74.31Zm-2.06,5.45a3.68,3.68,0,1,0-3.7,3.84A3.68,3.68,0,0,0,254.37,79.75Z"/><path class="cls-4" d="M260.18,68.4h2.09V85.2h-2.09Z"/><path class="cls-4" d="M287.87,80A7.85,7.85,0,0,1,280,85.59a8.52,8.52,0,0,1-8.81-8.81c0-4.56,3.24-8.76,8.5-8.76,4.87,0,7.56,2.76,8.18,6.26h-2.3A5.37,5.37,0,0,0,280,70c-4.13,0-6.53,3.26-6.53,6.79a6.55,6.55,0,0,0,6.84,6.84,5.57,5.57,0,0,0,5.21-3.6Z"/><path class="cls-4" d="M289.79,79.75a5.74,5.74,0,1,1,5.71,5.71A5.58,5.58,0,0,1,289.79,79.75Zm9.41,0a3.68,3.68,0,1,0-3.7,3.84A3.68,3.68,0,0,0,299.2,79.75Z"/><path class="cls-4" d="M304.12,74.31h2.09v1.92A4.07,4.07,0,0,1,310,74a3.78,3.78,0,0,1,3.26,1.44,5.2,5.2,0,0,1,.84,3.31V85.2h-2.09V79.42c0-2-.72-3.55-2.76-3.55s-3.1,1.78-3.1,3.72V85.2h-2.09Z"/><path class="cls-4" d="M318.16,74.31l3.41,7.92L325,74.31h2.26l-5,10.9h-1.44l-4.94-10.9Z"/><path class="cls-4" d="M329.87,80.31c.1,1.85,1,3.41,3.38,3.41A2.63,2.63,0,0,0,336,82h2.11c-.36,1.85-2.14,3.48-4.87,3.48-3.67,0-5.45-2.57-5.45-5.71S329.75,74,333.19,74a4.91,4.91,0,0,1,5,4.92,8,8,0,0,1-.1,1.37Zm0-1.58h6.31a2.94,2.94,0,0,0-3.07-3.1A3,3,0,0,0,329.9,78.72Z"/><path class="cls-4" d="M341.25,74.31h2.09v1.92A4.07,4.07,0,0,1,347.18,74a3.78,3.78,0,0,1,3.26,1.44,5.2,5.2,0,0,1,.84,3.31V85.2h-2.09V79.42c0-2-.72-3.55-2.76-3.55s-3.1,1.78-3.1,3.72V85.2h-2.09Z"/><path class="cls-4" d="M360.74,85.2a12.41,12.41,0,0,1-1.87.14c-1.34,0-3.43-.24-3.43-3.82V76.06h-2V74.31h2V70.63h2.09v3.67h2.83v1.75h-2.83v5c0,2.11.74,2.38,1.8,2.38a12,12,0,0,0,1.42-.1Z"/><path class="cls-4" d="M364,68.47a1.71,1.71,0,0,1,1.7,1.7,1.69,1.69,0,0,1-1.7,1.66,1.66,1.66,0,0,1-1.66-1.66A1.69,1.69,0,0,1,364,68.47Zm-1,5.83h2.09V85.2H363Z"/><path class="cls-4" d="M367.91,79.75a5.74,5.74,0,1,1,5.71,5.71A5.58,5.58,0,0,1,367.91,79.75Zm9.41,0a3.68,3.68,0,1,0-3.7,3.84A3.68,3.68,0,0,0,377.32,79.75Z"/><path class="cls-4" d="M382.24,74.31h2.09v1.92A4.07,4.07,0,0,1,388.17,74a3.78,3.78,0,0,1,3.26,1.44,5.2,5.2,0,0,1,.84,3.31V85.2h-2.09V79.42c0-2-.72-3.55-2.76-3.55s-3.1,1.78-3.1,3.72V85.2h-2.09Z"/><path class="cls-4" d="M13.38,735.85a3.55,3.55,0,0,0,3.79,3.77c1.95,0,3.34-1.1,3.34-2.86,0-2-1.73-2.62-3.19-3-3-1-5.52-1.8-5.52-5.21C11.8,725.84,14,724,17,724a5,5,0,0,1,5.28,5.14H20.12a2.92,2.92,0,0,0-3-3.17c-1.85,0-3.1,1-3.1,2.52,0,1.82,1.51,2.42,3.12,2.9,2.59.84,5.59,1.85,5.59,5.11s-2.5,5.06-5.69,5.06a5.51,5.51,0,0,1-5.81-5.74Z"/><path class="cls-4" d="M24.8,735.75a5.74,5.74,0,1,1,11.47,0,5.59,5.59,0,0,1-5.76,5.71A5.58,5.58,0,0,1,24.8,735.75Zm9.41,0a3.68,3.68,0,1,0-3.7,3.84A3.68,3.68,0,0,0,34.21,735.75Z"/><path class="cls-4" d="M46.79,734.27c-.17-1.34-1-2.38-3-2.38-2.26,0-3.38,1.82-3.38,3.87s1.08,3.84,3.5,3.84a2.64,2.64,0,0,0,2.93-2.14H48.9c-.34,2.26-2,4-5.16,4-3.55,0-5.45-2.76-5.45-5.71s1.9-5.74,5.42-5.74,5,2.14,5.16,4.25Z"/><path class="cls-4" d="M52.86,724.47a1.71,1.71,0,0,1,1.71,1.7,1.69,1.69,0,0,1-1.71,1.66,1.66,1.66,0,0,1-1.66-1.66A1.69,1.69,0,0,1,52.86,724.47Zm-1,5.83h2.09v10.9H51.83Z"/><path class="cls-4" d="M68.24,730.31v10.9H66.18v-1.9a4.34,4.34,0,0,1-3.82,2.16,5.73,5.73,0,0,1,0-11.45,4.34,4.34,0,0,1,3.82,2.16v-1.87Zm-2.06,5.45a3.68,3.68,0,1,0-3.7,3.84A3.68,3.68,0,0,0,66.18,735.75Z"/><path class="cls-4" d="M72,724.4h2.09v16.8H72Z"/><path class="cls-4" d="M94.48,730.31v10.9H92.41v-1.9a4.34,4.34,0,0,1-3.82,2.16,5.73,5.73,0,0,1,0-11.45,4.34,4.34,0,0,1,3.82,2.16v-1.87Zm-2.06,5.45a3.68,3.68,0,1,0-3.7,3.84A3.68,3.68,0,0,0,92.41,735.75Z"/><path class="cls-4" d="M98.22,730.31h2.09v1.92a4.07,4.07,0,0,1,3.84-2.21,3.78,3.78,0,0,1,3.26,1.44,5.2,5.2,0,0,1,.84,3.31v6.43h-2.09v-5.78c0-2-.72-3.55-2.76-3.55s-3.1,1.78-3.1,3.72v5.62H98.22Z"/><path class="cls-4" d="M120.3,739.31a4.34,4.34,0,0,1-3.82,2.16,5.73,5.73,0,0,1,0-11.45,4.34,4.34,0,0,1,3.82,2.16V724.4h2.06v16.8H120.3Zm0-3.55a3.68,3.68,0,1,0-3.7,3.84A3.68,3.68,0,0,0,120.3,735.75Z"/><path class="cls-4" d="M22,762.63H14.17V770H12V753.2h2.18v7.46H22V753.2h2.19V770H22Z"/><path class="cls-4" d="M37.74,759.11V770H35.65v-1.95a4.09,4.09,0,0,1-3.84,2.21,3.88,3.88,0,0,1-3.29-1.42,5.26,5.26,0,0,1-.82-3.31v-6.43h2.09v5.76c0,2,.72,3.55,2.74,3.55s3.12-1.75,3.12-3.72v-5.59Z"/><path class="cls-4" d="M55.6,770v-6.27c0-2-.82-3.07-2.3-3.07s-2.66,1.25-2.66,3.79V770H48.54v-6.14c0-2.21-.82-3.19-2.28-3.19s-2.69,1.25-2.69,3.79V770H41.48v-10.9h2.09V761a3.36,3.36,0,0,1,3.22-2.23c2,0,3.1.94,3.5,2.33a3.72,3.72,0,0,1,3.5-2.33c2.9,0,3.89,1.9,3.89,4.3V770Z"/><path class="cls-4" d="M71.84,759.11V770H69.78v-1.9A4.34,4.34,0,0,1,66,770.27a5.73,5.73,0,0,1,0-11.45A4.34,4.34,0,0,1,69.78,761v-1.87Zm-2.06,5.45a3.68,3.68,0,1,0-3.7,3.84A3.68,3.68,0,0,0,69.78,764.55Z"/><path class="cls-4" d="M75.59,759.11h2.09V761a4.07,4.07,0,0,1,3.84-2.21,3.78,3.78,0,0,1,3.26,1.44,5.2,5.2,0,0,1,.84,3.31V770H83.53v-5.79c0-2-.72-3.55-2.76-3.55s-3.1,1.78-3.1,3.72V770H75.59Z"/><path class="cls-4" d="M90.18,753.27A1.71,1.71,0,0,1,91.88,755a1.69,1.69,0,0,1-1.71,1.66A1.66,1.66,0,0,1,88.52,755,1.69,1.69,0,0,1,90.18,753.27Zm-1,5.83h2.09V770H89.15Z"/><path class="cls-4" d="M102.85,767c0,2.18-1.82,3.26-4.27,3.26s-4.51-1.3-4.51-3.94h2c0,1.66,1.1,2.28,2.57,2.28s2.18-.48,2.18-1.56-1.3-1.34-3.48-2.09c-1.66-.53-3-1-3-3s1.8-3.14,4.06-3.14,4.2,1.49,4.2,3.67h-2c0-1.27-.77-2-2.21-2-1.15,0-2,.53-2,1.51s1.13,1.27,3.14,1.92C101.24,764.46,102.85,764.94,102.85,767Z"/><path class="cls-4" d="M111.32,770a12.49,12.49,0,0,1-1.87.14c-1.34,0-3.43-.24-3.43-3.82v-5.47h-2v-1.75h2v-3.67h2.09v3.67h2.83v1.75h-2.83v5c0,2.11.74,2.38,1.8,2.38a12,12,0,0,0,1.42-.1Z"/><path class="cls-4" d="M121,764.65a3.55,3.55,0,0,0,3.79,3.77c1.95,0,3.34-1.1,3.34-2.86,0-2-1.73-2.62-3.19-3-3-1-5.52-1.8-5.52-5.21,0-2.66,2.21-4.49,5.23-4.49a5,5,0,0,1,5.28,5.14h-2.18a2.92,2.92,0,0,0-3-3.17c-1.85,0-3.1,1-3.1,2.52,0,1.82,1.51,2.42,3.12,2.9,2.59.84,5.59,1.85,5.59,5.11s-2.5,5.06-5.69,5.06a5.51,5.51,0,0,1-5.81-5.74Z"/><path class="cls-4" d="M137.65,764.55l5,5.45H140l-4.56-4.95V770h-2.09V753.2h2.09v10.87l4.56-5h2.64Z"/><path class="cls-4" d="M145.81,753.27a1.71,1.71,0,0,1,1.7,1.71,1.69,1.69,0,0,1-1.7,1.66,1.66,1.66,0,0,1-1.66-1.66A1.69,1.69,0,0,1,145.81,753.27Zm-1,5.83h2.09V770h-2.09Z"/><path class="cls-4" d="M150.61,753.2h2.09V770h-2.09Z"/><path class="cls-4" d="M156.44,753.2h2.09V770h-2.09Z"/><path class="cls-4" d="M170.15,767c0,2.18-1.82,3.26-4.27,3.26s-4.51-1.3-4.51-3.94h2c0,1.66,1.1,2.28,2.57,2.28s2.18-.48,2.18-1.56-1.29-1.34-3.48-2.09c-1.66-.53-3-1-3-3s1.8-3.14,4.06-3.14,4.2,1.49,4.2,3.67h-2c0-1.27-.77-2-2.21-2-1.15,0-2,.53-2,1.51s1.13,1.27,3.14,1.92C168.54,764.46,170.15,764.94,170.15,767Z"/><path class="cls-4" d="M14.17,812.77v5.5h7.25v2H14.17v5.4h7.25v2H12V810.8h9.43v2Z"/><path class="cls-4" d="M33.35,827.6h-2.4l-2.5-3.86L26,827.6h-2.4l3.7-5.5-3.65-5.4H26l2.45,3.79,2.45-3.79h2.4l-3.65,5.4Z"/><path class="cls-4" d="M37.69,818.58a4.3,4.3,0,0,1,3.79-2.16,5.73,5.73,0,0,1,0,11.45,4.3,4.3,0,0,1-3.79-2.16v7.8H35.6v-16.8h2.09Zm0,3.58a3.67,3.67,0,1,0,3.7-3.86A3.66,3.66,0,0,0,37.69,822.15Z"/><path class="cls-4" d="M51.2,822.71c.1,1.85,1,3.41,3.38,3.41a2.63,2.63,0,0,0,2.76-1.73h2.11c-.36,1.85-2.14,3.48-4.87,3.48-3.67,0-5.45-2.57-5.45-5.71s1.94-5.74,5.38-5.74a4.91,4.91,0,0,1,5,4.92,8,8,0,0,1-.1,1.37Zm0-1.58h6.31a2.94,2.94,0,0,0-3.07-3.1A3,3,0,0,0,51.23,821.12Z"/><path class="cls-4" d="M70.24,820.67c-.17-1.34-1-2.38-3-2.38-2.26,0-3.38,1.82-3.38,3.86s1.08,3.84,3.5,3.84a2.64,2.64,0,0,0,2.93-2.14h2.09c-.34,2.26-2,4-5.16,4-3.55,0-5.45-2.76-5.45-5.71s1.9-5.74,5.42-5.74,5,2.14,5.16,4.25Z"/><path class="cls-4" d="M81.2,827.6a12.33,12.33,0,0,1-1.87.14c-1.34,0-3.43-.24-3.43-3.82v-5.47h-2v-1.75h2V813H78v3.67h2.83v1.75H78v5c0,2.11.74,2.38,1.8,2.38a12.2,12.2,0,0,0,1.42-.1Z"/><path class="cls-4" d="M93.9,816.71v10.9H91.84v-1.9A4.34,4.34,0,0,1,88,827.87a5.73,5.73,0,0,1,0-11.45,4.34,4.34,0,0,1,3.82,2.16v-1.87Zm-2.06,5.45a3.68,3.68,0,1,0-3.7,3.84A3.68,3.68,0,0,0,91.84,822.15Z"/><path class="cls-4" d="M103.57,827.6a12.34,12.34,0,0,1-1.87.14c-1.34,0-3.43-.24-3.43-3.82v-5.47h-2v-1.75h2V813h2.09v3.67h2.83v1.75h-2.83v5c0,2.11.74,2.38,1.8,2.38a12.2,12.2,0,0,0,1.42-.1Z"/><path class="cls-4" d="M106.83,810.87a1.71,1.71,0,0,1,1.71,1.7,1.69,1.69,0,0,1-1.71,1.66,1.66,1.66,0,0,1-1.66-1.66A1.69,1.69,0,0,1,106.83,810.87Zm-1,5.83h2.09v10.9H105.8Z"/><path class="cls-4" d="M110.75,822.15a5.74,5.74,0,1,1,5.71,5.71A5.58,5.58,0,0,1,110.75,822.15Zm9.41,0a3.68,3.68,0,1,0-3.7,3.84A3.68,3.68,0,0,0,120.16,822.15Z"/><path class="cls-4" d="M125.07,816.71h2.09v1.92a4.07,4.07,0,0,1,3.84-2.21,3.78,3.78,0,0,1,3.26,1.44,5.2,5.2,0,0,1,.84,3.31v6.43H133v-5.79c0-2-.72-3.55-2.76-3.55s-3.1,1.78-3.1,3.72v5.62h-2.09Z"/><path class="cls-4" d="M143.82,822.15a5.74,5.74,0,1,1,5.71,5.71A5.58,5.58,0,0,1,143.82,822.15Zm9.41,0a3.68,3.68,0,1,0-3.7,3.84A3.68,3.68,0,0,0,153.23,822.15Z"/><path class="cls-4" d="M164.1,812.72a3.82,3.82,0,0,0-1.22-.19c-.89,0-1.9.1-1.9,2.06v2.11h3.12v1.75H161v9.14h-2.09v-9.14h-2.35v-1.75h2.35v-1.9c0-4,2.42-4.15,3.72-4.15a3.23,3.23,0,0,1,1.49.29Z"/><path class="cls-4" d="M14.17,841.57v5.5h7.25v2H14.17v5.4h7.25v2H12V839.6h9.43v2Z"/><path class="cls-4" d="M39.16,856.4v-6.27c0-2-.82-3.07-2.3-3.07s-2.66,1.25-2.66,3.79v5.54H32.1v-6.14c0-2.21-.82-3.19-2.28-3.19s-2.69,1.25-2.69,3.79v5.54H25v-10.9h2.09v1.94a3.36,3.36,0,0,1,3.22-2.23c2,0,3.1.94,3.5,2.33a3.72,3.72,0,0,1,3.5-2.33c2.9,0,3.89,1.9,3.89,4.3v6.89Z"/><path class="cls-4" d="M43.93,851a5.74,5.74,0,1,1,5.71,5.71A5.58,5.58,0,0,1,43.93,851Zm9.41,0a3.68,3.68,0,1,0-3.7,3.84A3.68,3.68,0,0,0,53.34,851Z"/><path class="cls-4" d="M64.19,856.4a12.48,12.48,0,0,1-1.87.14c-1.34,0-3.43-.24-3.43-3.82v-5.47h-2v-1.75h2v-3.67H61v3.67H63.8v1.75H61v5c0,2.11.74,2.38,1.8,2.38a12,12,0,0,0,1.42-.1Z"/><path class="cls-4" d="M67.45,839.67a1.71,1.71,0,0,1,1.7,1.71,1.69,1.69,0,0,1-1.7,1.66,1.66,1.66,0,0,1-1.66-1.66A1.69,1.69,0,0,1,67.45,839.67Zm-1,5.83h2.09v10.9H66.42Z"/><path class="cls-4" d="M71.36,851a5.74,5.74,0,1,1,5.71,5.71A5.58,5.58,0,0,1,71.36,851Zm9.41,0a3.68,3.68,0,1,0-3.7,3.84A3.68,3.68,0,0,0,80.77,851Z"/><path class="cls-4" d="M85.69,845.51h2.09v1.92a4.07,4.07,0,0,1,3.84-2.21,3.78,3.78,0,0,1,3.26,1.44,5.2,5.2,0,0,1,.84,3.31v6.43H93.64v-5.79c0-2-.72-3.55-2.76-3.55s-3.1,1.78-3.1,3.72v5.62H85.69Z"/><path class="cls-4" d="M109.84,845.51v10.9h-2.06v-1.9a4.34,4.34,0,0,1-3.82,2.16,5.73,5.73,0,0,1,0-11.45,4.34,4.34,0,0,1,3.82,2.16v-1.87ZM107.77,851a3.68,3.68,0,1,0-3.7,3.84A3.68,3.68,0,0,0,107.77,851Z"/><path class="cls-4" d="M113.58,839.6h2.09v16.8h-2.09Z"/><path class="cls-4" d="M133.16,854.43v2h-7.68V839.6h2.18v14.83Z"/><path class="cls-4" d="M145.79,845.51v10.9h-2.06v-1.9a4.34,4.34,0,0,1-3.82,2.16,5.73,5.73,0,0,1,0-11.45,4.34,4.34,0,0,1,3.82,2.16v-1.87ZM143.72,851a3.68,3.68,0,1,0-3.7,3.84A3.68,3.68,0,0,0,143.72,851Z"/><path class="cls-4" d="M151.62,856.4h-2.09V839.6h2.09v7.78a4.3,4.3,0,0,1,3.79-2.16,5.73,5.73,0,0,1,0,11.45,4.3,4.3,0,0,1-3.79-2.16Zm7.32-5.45a3.66,3.66,0,1,0-3.62,3.84A3.66,3.66,0,0,0,158.94,851Z"/><path class="cls-4" d="M163,851a5.74,5.74,0,1,1,5.71,5.71A5.58,5.58,0,0,1,163,851Zm9.41,0a3.68,3.68,0,1,0-3.7,3.84A3.68,3.68,0,0,0,172.43,851Z"/><path class="cls-4" d="M184.09,847.43a4,4,0,0,0-1-.12c-2.42,0-3.62,1.71-3.62,4.32v4.78h-2.09v-10.9h2.09v2.14a4,4,0,0,1,3.63-2.3,2.65,2.65,0,0,1,1,.17Z"/><path class="cls-4" d="M528.17,340.4a8.41,8.41,0,1,1,0,16.8H523V340.4Zm-3,2v12.87h3a6.43,6.43,0,1,0,0-12.87Z"/><path class="cls-4" d="M538.83,351.75a5.74,5.74,0,1,1,5.71,5.71A5.58,5.58,0,0,1,538.83,351.75Zm9.41,0a3.68,3.68,0,1,0-3.7,3.84A3.68,3.68,0,0,0,548.24,351.75Z"/><path class="cls-4" d="M567.27,357.2v-6.26c0-2-.82-3.07-2.3-3.07s-2.66,1.25-2.66,3.79v5.54h-2.09v-6.14c0-2.21-.82-3.19-2.28-3.19s-2.69,1.25-2.69,3.79v5.54h-2.09v-10.9h2.09v1.94a3.36,3.36,0,0,1,3.22-2.23c2,0,3.1.94,3.5,2.33a3.72,3.72,0,0,1,3.5-2.33c2.9,0,3.89,1.9,3.89,4.3v6.89Z"/><path class="cls-4" d="M574.16,352.31c.1,1.85,1,3.41,3.38,3.41A2.63,2.63,0,0,0,580.3,354h2.11c-.36,1.85-2.14,3.48-4.87,3.48-3.67,0-5.45-2.57-5.45-5.71S574,346,577.47,346a4.91,4.91,0,0,1,5,4.92,8,8,0,0,1-.1,1.37Zm0-1.58h6.31a2.94,2.94,0,0,0-3.07-3.1A3,3,0,0,0,574.18,350.72Z"/><path class="cls-4" d="M593.4,354.2c0,2.18-1.82,3.26-4.27,3.26s-4.51-1.3-4.51-3.94h2c0,1.66,1.1,2.28,2.57,2.28s2.18-.48,2.18-1.56-1.3-1.34-3.48-2.09c-1.66-.53-3-1-3-3S586.78,346,589,346s4.2,1.49,4.2,3.67h-2c0-1.27-.77-2-2.21-2-1.15,0-2,.53-2,1.51s1.13,1.27,3.14,1.92C591.8,351.66,593.4,352.14,593.4,354.2Z"/><path class="cls-4" d="M601.88,357.2a12.42,12.42,0,0,1-1.87.14c-1.34,0-3.43-.24-3.43-3.82v-5.47h-2v-1.75h2v-3.67h2.09v3.67h2.83v1.75h-2.83v5c0,2.11.74,2.38,1.8,2.38a12,12,0,0,0,1.42-.1Z"/><path class="cls-4" d="M605.14,340.47a1.71,1.71,0,0,1,1.7,1.7,1.69,1.69,0,0,1-1.7,1.66,1.66,1.66,0,0,1-1.66-1.66A1.69,1.69,0,0,1,605.14,340.47Zm-1,5.83h2.09v10.9h-2.09Z"/><path class="cls-4" d="M617.6,350.27c-.17-1.34-1-2.38-3-2.38-2.26,0-3.38,1.82-3.38,3.86s1.08,3.84,3.5,3.84a2.64,2.64,0,0,0,2.93-2.14h2.09c-.34,2.26-2,4-5.16,4-3.55,0-5.45-2.76-5.45-5.71S611,346,614.52,346s5,2.14,5.16,4.25Z"/><path class="cls-4" d="M632.69,355.14V351.3h-3.74v-1.85h3.74v-3.89h2.09v3.89h3.74v1.85h-3.74v3.84Z"/><path class="cls-4" d="M525.17,371.17v5.5h7.25v2h-7.25V384h7.25v2H523V369.2h9.43v2Z"/><path class="cls-4" d="M550.16,386v-6.26c0-2-.82-3.07-2.3-3.07s-2.66,1.25-2.66,3.79V386H543.1v-6.14c0-2.21-.82-3.19-2.28-3.19s-2.69,1.25-2.69,3.79V386H536v-10.9h2.09V377a3.36,3.36,0,0,1,3.22-2.23c2,0,3.1.94,3.5,2.33a3.72,3.72,0,0,1,3.5-2.33c2.9,0,3.89,1.9,3.89,4.3V386Z"/><path class="cls-4" d="M554.93,380.55a5.74,5.74,0,1,1,5.71,5.71A5.58,5.58,0,0,1,554.93,380.55Zm9.41,0a3.68,3.68,0,1,0-3.7,3.84A3.68,3.68,0,0,0,564.34,380.55Z"/><path class="cls-4" d="M575.19,386a12.4,12.4,0,0,1-1.87.14c-1.34,0-3.43-.24-3.43-3.82v-5.47h-2v-1.75h2v-3.67H572v3.67h2.83v1.75H572v5c0,2.11.74,2.38,1.8,2.38a12,12,0,0,0,1.42-.1Z"/><path class="cls-4" d="M578.45,369.27a1.71,1.71,0,0,1,1.7,1.7,1.69,1.69,0,0,1-1.7,1.66,1.66,1.66,0,0,1-1.66-1.66A1.69,1.69,0,0,1,578.45,369.27Zm-1,5.83h2.09V386h-2.09Z"/><path class="cls-4" d="M582.36,380.55a5.74,5.74,0,1,1,5.71,5.71A5.58,5.58,0,0,1,582.36,380.55Zm9.41,0a3.68,3.68,0,1,0-3.7,3.84A3.68,3.68,0,0,0,591.77,380.55Z"/><path class="cls-4" d="M596.69,375.11h2.09V377a4.07,4.07,0,0,1,3.84-2.21,3.78,3.78,0,0,1,3.26,1.44,5.2,5.2,0,0,1,.84,3.31V386h-2.09v-5.78c0-2-.72-3.55-2.76-3.55s-3.1,1.78-3.1,3.72V386h-2.09Z"/><path class="cls-4" d="M620.84,375.11V386h-2.06v-1.9a4.34,4.34,0,0,1-3.82,2.16,5.73,5.73,0,0,1,0-11.45,4.34,4.34,0,0,1,3.82,2.16v-1.87Zm-2.06,5.45a3.68,3.68,0,1,0-3.7,3.84A3.68,3.68,0,0,0,618.77,380.55Z"/><path class="cls-4" d="M624.58,369.2h2.09V386h-2.09Z"/><path class="cls-4" d="M639.24,371.17H634.9v-2h10.9v2h-4.37V386h-2.18Z"/><path class="cls-4" d="M645,380.55a5.74,5.74,0,1,1,5.71,5.71A5.58,5.58,0,0,1,645,380.55Zm9.41,0a3.68,3.68,0,1,0-3.7,3.84A3.68,3.68,0,0,0,654.46,380.55Z"/><path class="cls-4" d="M659.19,387.42h2.11a2.79,2.79,0,0,0,3,3c1.87,0,3-.74,3-3.24v-3.07a4,4,0,0,1-3.82,2.21,3.86,3.86,0,0,1-3.31-1.39,5.39,5.39,0,0,1-.82-3.41v-6.36h2.09v5.71c0,2.11.63,3.6,2.79,3.6s3.07-1.75,3.07-3.72v-5.59h2.09v12c0,3.48-1.82,5-5.18,5C661.18,392.15,659.26,390.56,659.19,387.42Z"/><path class="cls-4" d="M681,383c0,2.18-1.82,3.26-4.27,3.26s-4.51-1.3-4.51-3.94h2c0,1.66,1.1,2.28,2.57,2.28s2.18-.48,2.18-1.56-1.29-1.34-3.48-2.09c-1.66-.53-3-1-3-3s1.8-3.14,4.06-3.14,4.2,1.49,4.2,3.67h-2c0-1.27-.77-2-2.21-2-1.15,0-2,.53-2,1.51s1.13,1.27,3.14,1.92C679.39,380.46,681,380.94,681,383Z"/></g></g></svg>